<svg width="12" height="12" viewBox="0 0 12 12" fill="none" xmlns="http://www.w3.org/2000/svg">
<path d="M11.8399 2.62244L7.69043 5.78359L11.8484 9.36109C11.945 9.17847 12 8.9706 12 8.75001V3.24981C12 3.02268 11.9419 2.80891 11.8399 2.62244Z" fill="#A89574"/>
<path d="M10.6887 1.9386H1.31134C1.05322 1.9386 0.812447 2.01386 0.609314 2.14318L5.78399 6.02146C5.91364 6.11661 6.08736 6.1168 6.21723 6.02209L11.3451 2.11548C11.1519 2.00322 10.9278 1.9386 10.6887 1.9386Z" fill="#A89574"/>
<path d="M7.11855 6.21936L6.63665 6.58651C6.44659 6.72683 6.22377 6.797 6.00105 6.797C5.77827 6.797 5.55557 6.72685 5.36544 6.58651L5.36341 6.58501L4.88216 6.22433L0.638733 9.87531C0.835514 9.99341 1.0656 10.0615 1.31132 10.0615H10.6887C10.936 10.0615 11.1675 9.99259 11.3651 9.87308L7.11855 6.21936Z" fill="#A89574"/>
<path d="M0.136758 2.66772C0.0493828 2.84325 0 3.04083 0 3.24987V8.75011C0 8.97222 0.0556875 9.18152 0.153586 9.36504L4.30591 5.79239L0.136758 2.66772Z" fill="#A89574"/>
</svg>
